<?xml version="1.0" encoding="UTF-8"?>
<svg xmlns="http://www.w3.org/2000/svg" xmlns:xlink="http://www.w3.org/1999/xlink" width="50pt" height="50pt" viewBox="0 0 50 50" version="1.1">
<g id="surface12312017">
<path style=" stroke:none;fill-rule:nonzero;fill:rgb(78.431374%,80.784315%,84.313726%);fill-opacity:1;" d="M 25 2 C 24.964844 2 24.933594 2 24.902344 2.003906 C 21.285156 2.019531 18.621094 2.9375 16.859375 3.878906 C 15.4375 4.636719 14.996094 5.164062 14.703125 5.460938 C 14.160156 5.246094 13.625 5 13 5 C 10.25 5 8 7.25 8 10 C 8 12.027344 9.253906 13.71875 11 14.496094 L 11 23.878906 L 8.441406 26.4375 C 7.851562 27.027344 7.851562 27.972656 8.441406 28.558594 C 8.734375 28.855469 9.117188 29 9.5 29 C 9.882812 29 10.265625 28.855469 10.558594 28.558594 L 10.734375 28.386719 C 10.664062 28.839844 10.597656 29.292969 10.515625 29.765625 C 10.261719 31.21875 10 32.945312 10 36 C 10 38.835938 11.347656 41.78125 13.835938 44.042969 L 12.441406 45.4375 C 11.851562 46.027344 11.851562 46.972656 12.441406 47.558594 C 12.734375 47.855469 13.117188 48 13.5 48 C 13.882812 48 14.269531 47.855469 14.558594 47.558594 L 16.296875 45.820312 C 18.609375 47.148438 21.503906 47.980469 24.910156 47.996094 C 24.917969 47.996094 24.921875 47.996094 24.929688 47.996094 C 24.953125 48 24.976562 48 25 48 C 25.035156 48 25.066406 48 25.101562 47.996094 C 28.503906 47.980469 31.394531 47.144531 33.703125 45.820312 L 35.441406 47.558594 C 35.730469 47.855469 36.117188 48 36.5 48 C 36.882812 48 37.265625 47.855469 37.558594 47.558594 C 38.148438 46.972656 38.148438 46.027344 37.558594 45.4375 L 36.160156 44.039062 C 38.648438 41.777344 40 38.835938 40 36 C 40 32.945312 39.738281 31.21875 39.484375 29.765625 C 39.402344 29.292969 39.335938 28.839844 39.265625 28.386719 L 39.441406 28.558594 C 39.734375 28.855469 40.117188 29 40.5 29 C 40.882812 29 41.265625 28.855469 41.558594 28.558594 C 42.148438 27.972656 42.148438 27.027344 41.558594 26.4375 L 39 23.878906 L 39 14.496094 C 40.746094 13.71875 42 12.027344 42 10 C 42 7.25 39.75 5 37 5 C 36.375 5 35.839844 5.246094 35.296875 5.460938 C 35.003906 5.164062 34.5625 4.636719 33.140625 3.878906 C 31.375 2.933594 28.699219 2.015625 25.070312 2.003906 C 25.046875 2 25.023438 2 25 2 Z M 25 4 C 28.332031 4 30.679688 4.832031 32.199219 5.640625 C 33.71875 6.449219 34.339844 7.175781 34.339844 7.175781 C 34.652344 7.535156 35.171875 7.621094 35.585938 7.386719 C 36.019531 7.140625 36.488281 7 37 7 C 38.667969 7 40 8.332031 40 10 C 40 11.40625 39.042969 12.5625 37.75 12.894531 C 37.308594 13.011719 37 13.40625 37 13.863281 L 37 25 C 37 27.324219 37.269531 28.6875 37.515625 30.109375 C 37.761719 31.53125 38 33.054688 38 36 C 38 40.472656 33.566406 46 25 46 C 16.433594 46 12 40.472656 12 36 C 12 33.054688 12.238281 31.53125 12.484375 30.109375 C 12.730469 28.6875 13 27.324219 13 25 L 13 13.863281 C 13 13.40625 12.691406 13.011719 12.25 12.898438 C 10.957031 12.5625 10 11.40625 10 10 C 10 8.332031 11.332031 7 13 7 C 13.511719 7 13.980469 7.140625 14.414062 7.386719 C 14.828125 7.621094 15.347656 7.535156 15.660156 7.179688 C 15.660156 7.179688 16.28125 6.449219 17.800781 5.640625 C 19.320312 4.832031 21.667969 4 25 4 Z M 19.5 8 C 17.027344 8 15 10.027344 15 12.5 C 15 14.972656 17.027344 17 19.5 17 C 21.972656 17 24 14.972656 24 12.5 C 24 10.027344 21.972656 8 19.5 8 Z M 30.496094 8.003906 C 28.023438 8.003906 26 10.027344 26 12.5 C 26 14.972656 28.023438 17 30.496094 16.996094 C 32.972656 16.996094 34.996094 14.972656 34.996094 12.5 C 34.996094 10.027344 32.972656 8.003906 30.496094 8.003906 Z M 13 9 C 12.449219 9 12 9.449219 12 10 C 12 10.550781 12.449219 11 13 11 C 13.066406 11 13.128906 10.972656 13.191406 10.960938 C 13.324219 10.414062 13.523438 9.890625 13.785156 9.40625 C 13.601562 9.164062 13.324219 9 13 9 Z M 37 9 C 36.675781 9 36.398438 9.164062 36.214844 9.40625 C 36.476562 9.890625 36.675781 10.414062 36.808594 10.960938 C 36.871094 10.972656 36.933594 11 37 11 C 37.550781 11 38 10.550781 38 10 C 38 9.449219 37.550781 9 37 9 Z M 19.5 10 C 20.890625 10 22 11.109375 22 12.5 C 22 13.890625 20.890625 15 19.5 15 C 18.675781 15 17.957031 14.605469 17.503906 14 C 18.332031 13.996094 19 13.328125 19 12.5 C 19 11.671875 18.332031 11.003906 17.503906 11 C 17.957031 10.394531 18.675781 10 19.5 10 Z M 30.496094 10.003906 C 31.890625 10.003906 32.996094 11.109375 32.996094 12.5 C 32.996094 13.890625 31.890625 14.996094 30.496094 14.996094 C 29.675781 14.996094 28.957031 14.605469 28.503906 14 C 29.332031 13.996094 30 13.328125 30 12.5 C 30 11.671875 29.332031 11.003906 28.503906 11 C 28.957031 10.394531 29.675781 10.003906 30.496094 10.003906 Z M 25 16 C 23.582031 16 22.359375 16.660156 22.066406 17.585938 C 21.765625 17.773438 21.480469 17.980469 21.230469 18.230469 C 20.511719 18.949219 20 19.917969 20 21 C 20 21.25 20.058594 22.253906 20.839844 22.941406 C 21.332031 23.371094 22.042969 23.660156 23 23.828125 L 23 25 C 22.996094 25.359375 23.183594 25.695312 23.496094 25.878906 C 23.808594 26.058594 24.191406 26.058594 24.503906 25.878906 C 24.816406 25.695312 25.003906 25.359375 25 25 C 24.996094 25.359375 25.183594 25.695312 25.496094 25.878906 C 25.808594 26.058594 26.191406 26.058594 26.503906 25.878906 C 26.816406 25.695312 27.003906 25.359375 27 25 L 27 23.828125 C 27.957031 23.660156 28.667969 23.371094 29.160156 22.941406 C 29.941406 22.253906 30 21.25 30 21 C 30 19.917969 29.488281 18.949219 28.769531 18.230469 C 28.519531 17.980469 28.234375 17.773438 27.933594 17.585938 C 27.636719 16.664062 26.417969 16 25 16 Z M 22.902344 19.429688 C 23.464844 19.792969 24.214844 20 25 20 C 25.785156 20 26.539062 19.796875 27.097656 19.429688 C 27.1875 19.496094 27.273438 19.5625 27.355469 19.644531 C 27.761719 20.050781 28 20.582031 28 21 C 28 21.25 28.058594 21.246094 27.839844 21.433594 C 27.625 21.625 26.875 22 25 22 C 23.125 22 22.375 21.625 22.160156 21.433594 C 21.941406 21.246094 22 21.25 22 21 C 22 20.582031 22.238281 20.050781 22.644531 19.644531 C 22.726562 19.5625 22.816406 19.496094 22.902344 19.429688 Z M 22.902344 19.429688 "/>
</g>
</svg>
